<?xml version="1.0" encoding="UTF-8" standalone="no"?>
<svg
   version="1.0"
   width="346.000000pt"
   height="413.000000pt"
   viewBox="0 0 346.000000 413.000000"
   preserveAspectRatio="xMidYMid meet"
   id="svg328"
   sodipodi:docname="ghalmaraz.svg"
   inkscape:version="1.2.2 (b0a8486541, 2022-12-01)"
   xmlns:inkscape="http://www.inkscape.org/namespaces/inkscape"
   xmlns:sodipodi="http://sodipodi.sourceforge.net/DTD/sodipodi-0.dtd"
   xmlns="http://www.w3.org/2000/svg"
   xmlns:svg="http://www.w3.org/2000/svg">
  <defs
     id="defs332" />
  <sodipodi:namedview
     id="namedview330"
     pagecolor="#ffffff"
     bordercolor="#000000"
     borderopacity="0.25"
     inkscape:showpageshadow="2"
     inkscape:pageopacity="0.0"
     inkscape:pagecheckerboard="0"
     inkscape:deskcolor="#d1d1d1"
     inkscape:document-units="pt"
     showgrid="false"
     inkscape:zoom="1.0760693"
     inkscape:cx="372.65259"
     inkscape:cy="281.58038"
     inkscape:window-width="1920"
     inkscape:window-height="1012"
     inkscape:window-x="0"
     inkscape:window-y="0"
     inkscape:window-maximized="1"
     inkscape:current-layer="g1285" />
  <g
     transform="translate(0.000000,413.000000) scale(0.100000,-0.100000)"
     fill="#000000"
     stroke="none"
     id="g326">
    <g
       id="g1285">
      <path
         d="m 1804,3963 c -3,-16 -8,-35 -10,-43 -3,-8 -39,-176 -79,-372 -92,-447 -89,-434 -123,-450 -23,-11 -28,-20 -32,-68 l -5,-55 -57,-3 c -50,-3 -60,-7 -78,-32 -11,-16 -30,-30 -42,-32 -15,-2 -25,-13 -31,-35 -9,-29 -12,-31 -41,-26 -51,9 -216,72 -289,110 -72,38 -214,153 -285,231 -54,59 -120,167 -128,211 -8,37 -65,101 -91,101 -10,0 -34,-17 -55,-37 -35,-34 -41,-36 -100,-36 -50,0 -64,3 -72,18 -20,35 -55,65 -76,65 -11,0 -29.55165,-8.4747 -40,-20 -18.13121,-20 -30.23565,-38.0935 -19.63909,-1089.458 L 160.95784,1349.1405 172,1326 c 32,-23 48,-20 97,19 38,31 51,35 100,35 50,0 59,-3 83,-30 48,-54 117,-29 134,49 20,90 56,141 217,308 146,150 167,163 365,227 140,45 174,48 187,18 5,-13 21,-25 35,-28 82,-16 100,-26 140,-75 l 43,-50 -5,-197 c -4,-161 -8,-204 -23,-233 -16,-34 -16,-38 -1,-68 15,-28 16,-54 10,-201 -5,-126 -4,-177 6,-199 11,-27 10,-33 -9,-57 -12,-15 -21,-41 -21,-60 0,-27 8,-39 41,-66 23,-18 45,-42 49,-53 4,-12 4,-158 -1,-325 -8,-299 -6,-330 22,-330 5,0 2,11 -7,25 -14,21 -15,37 -8,88 4,34 8,134 9,222 1,88 5,181 9,207 14,76 1,116 -55,170 -27,26 -49,55 -49,64 0,9 11,29 25,46 26,31 33,72 14,84 -9,5 -10,59 -7,188 4,150 3,184 -9,195 -8,8 -13,23 -10,35 3,11 10,39 15,61 6,22 13,120 17,218 l 7,177 -26,41 c -15,22 -24,45 -20,51 4,6 3,8 -4,4 -5,-3 -19,6 -30,21 -16,22 -30,28 -73,33 -50,5 -54,7 -57,32 -2,17 4,34 17,47 25,25 30,61 6,41 -8,-6 -19,-9 -24,-6 -6,4 -18,3 -28,-2 -10,-6 -40,-15 -68,-21 -51,-12 -74,-26 -62,-37 3,-4 22,1 41,10 19,9 47,16 63,16 16,0 35,6 42,13 10,10 12,7 9,-12 -3,-22 -10,-26 -73,-37 -90,-15 -245,-62 -266,-80 -9,-8 -34,-18 -55,-21 -33,-5 -57,-25 -158,-125 -65,-65 -122,-118 -127,-118 -5,0 -7,11 -3,25 4,16 2,25 -5,25 -7,0 -11,-15 -10,-38 2,-27 -4,-47 -21,-70 -23,-32 -40,-41 -40,-23 0,6 4,13 10,16 6,3 10,11 10,16 0,6 -4,8 -9,4 -18,-10 -22,15 -7,43 24,47 135,154 152,148 12,-4 14,-1 9,14 -4,12 -2,20 5,20 7,0 30,16 53,35 22,19 46,35 53,35 6,0 17,6 23,14 23,27 257,134 268,122 7,-7 -27,-34 -67,-53 -19,-9 -21,-12 -7,-12 27,-1 58,18 98,60 27,29 44,39 67,39 17,0 34,5 37,10 3,6 15,10 26,10 17,0 19,8 21,83 1,45 2,99 2,120 -1,29 3,37 17,37 34,0 50,-43 58,-157 6,-84 9,-95 10,-48 4,104 20,110 20,8 l 1,-93 h 105 c 63,0 105,-4 105,-10 0,-14 -186,-13 -212,1 -19,10 -20,9 -14,-15 7,-27 -2,-34 -21,-15 -11,11 -33,5 -33,-10 0,-13 59,-19 63,-7 3,10 255,29 269,20 4,-3 8,-14 8,-25 0,-11 3,-18 8,-16 4,3 18,0 32,-7 20,-9 -1,-12 -120,-16 -136,-5 -154,-10 -87,-24 17,-4 27,-13 27,-25 0,-14 7,-18 30,-17 32,1 43,16 11,16 -10,0 -22,7 -25,16 -10,26 105,15 144,-14 34,-26 83,-28 124,-7 15,8 48,15 71,15 25,0 50,6 59,15 20,21 30,19 65,-11 24,-20 31,-22 31,-10 0,9 -7,16 -16,16 -9,0 -14,6 -11,13 2,7 16,11 31,9 19,-3 26,0 22,7 -4,6 -15,11 -24,11 -14,0 -15,2 -2,10 26,16 5,20 -25,3 -32,-17 -103,-21 -148,-8 -21,6 -26,4 -22,-7 9,-22 -39,-59 -82,-65 -30,-4 -42,-1 -56,15 -18,20 -18,20 1,26 11,4 31,2 45,-3 16,-6 29,-7 32,-1 3,5 12,7 19,4 7,-3 16,2 19,10 4,9 2,16 -3,16 -6,0 -10,7 -10,15 0,8 7,15 15,15 32,0 13,16 -21,17 -45,1 -47,4 -33,36 9,21 22,28 63,34 l 51,9 -30,14 c -16,8 -32,26 -36,40 -4,14 -7,19 -8,11 -1,-11 -4,-11 -16,-1 -23,19 -18,-4 5,-25 26,-23 25,-28 -7,-42 -23,-11 -32,-10 -61,8 -27,16 -37,17 -43,7 -16,-25 -18,-1 -4,52 8,29 11,58 8,63 -3,5 0,8 8,5 18,-6 24,-47 10,-61 -15,-15 -14,-27 4,-27 8,0 15,8 15,18 0,36 58,69 90,52 15,-8 20,-6 25,10 3,11 15,20 26,20 14,0 20,-9 25,-40 4,-22 9,-40 11,-40 11,0 82,57 93,73 14,24 5,34 -15,17 -12,-10 -19,-9 -39,3 l -24,16 9,-37 c 5,-25 4,-39 -4,-44 -18,-11 -32,68 -16,88 18,22 2,30 -21,9 -23,-21 -39,-13 -20,10 17,20 0,19 -29,-2 -23,-16 -23,-17 -5,-24 17,-6 16,-8 -10,-18 -40,-16 -62,-10 -59,17 4,29 -15,29 -19,0 -2,-19 -8,-22 -33,-20 -16,2 -41,10 -55,18 -14,7 -32,16 -40,19 -31,12 -62,167 -42,208 6,12 16,37 24,55 7,17 19,32 25,32 19,0 16,-13 -10,-52 -19,-27 -23,-45 -21,-86 3,-65 48,-152 77,-152 11,0 29,-7 39,-17 11,-10 18,-12 18,-4 0,6 -7,14 -15,17 -24,10 -17,26 7,18 21,-6 22,-5 8,11 -14,17 -13,18 5,11 11,-4 37,-10 58,-13 32,-5 37,-3 37,14 0,22 23,46 55,57 19,7 19,8 3,17 -31,17 -22,39 12,33 18,-4 30,-2 30,4 0,5 -8,8 -17,6 -12,-3 -27,9 -45,35 -16,24 -41,44 -62,52 -20,7 -36,17 -36,22 0,9 12,7 55,-8 20,-7 20,-6 1,9 -12,9 -37,16 -60,15 -23,-1 -33,-3 -23,-6 9,-2 17,-9 17,-14 0,-12 -23,-12 -36,1 -13,13 -64,-4 -64,-20 0,-15 11,-12 32,7 21,19 37,11 20,-10 -17,-21 -1,-30 19,-11 41,37 136,-28 123,-84 -4,-15 -14,-33 -23,-40 -9,-7 -15,-20 -13,-29 6,-26 -7,-47 -21,-35 -6,5 -28,12 -48,16 -61,11 -97,66 -76,115 l 13,32 12,-26 c 6,-13 9,-30 7,-37 -7,-20 17,-45 52,-52 26,-6 34,-4 43,14 7,12 9,32 6,45 -7,26 -72,70 -81,54 -4,-5 5,-13 19,-19 14,-5 26,-16 26,-25 0,-8 5,-15 10,-15 6,0 10,-9 10,-19 0,-11 -5,-23 -10,-26 -5,-3 -10,1 -10,9 0,9 -6,13 -14,10 -8,-3 -21,11 -34,40 -12,24 -26,47 -31,50 -5,3 -21,-15 -35,-40 -30,-54 -32,-61 -11,-44 12,10 15,9 15,-7 0,-11 9,-28 20,-38 24,-22 26,-53 3,-62 -21,-8 -53,30 -53,64 0,13 -4,21 -10,18 -16,-10 -11,16 10,64 24,52 25,67 3,26 -15,-26 -18,-27 -21,-10 -5,25 24,80 53,99 60,40 150,40 200,1 19,-14 19,-16 3,-28 -13,-10 -14,-17 -6,-25 9,-9 14,-6 23,11 9,18 8,27 -7,50 -22,31 -15,34 32,11 45,-23 125,-14 179,20 54,34 61,33 61,-10 0,-40 27,-90 75,-142 l 30,-33 18,22 c 13,17 15,25 6,36 -9,10 -9,20 1,41 7,15 14,38 16,52 2,21 1,22 -7,7 -6,-9 -7,-22 -4,-27 3,-6 -1,-10 -9,-10 -19,0 -20,10 -3,43 13,24 15,25 35,11 12,-8 26,-13 30,-10 4,2 28,-4 52,-15 34,-15 45,-17 51,-7 8,13 -69,43 -143,55 -38,6 -51,26 -24,36 12,5 13,13 6,38 -11,37 -4,53 19,44 9,-4 60,-20 114,-35 73,-21 103,-35 118,-54 11,-14 51,-44 89,-66 38,-22 75,-46 82,-53 7,-7 29,-23 48,-36 43,-30 91,-79 87,-91 -1,-4 25,-39 59,-77 104,-116 147,-199 118,-227 -8,-8 -14,-19 -14,-25 0,-6 -5,-11 -11,-11 -5,0 -7,4 -4,10 3,6 -1,7 -9,4 -9,-3 -16,-1 -16,6 0,6 -4,9 -9,6 -10,-7 -143,24 -151,34 -8,12 -221,30 -292,26 -38,-3 -68,-1 -68,4 0,5 -15,4 -32,-1 -18,-5 -40,-9 -48,-9 -13,0 -13,1 0,10 11,8 7,9 -15,3 -16,-4 -41,-7 -55,-8 -23,0 -25,4 -26,48 -1,46 -1,47 30,48 63,3 232,-2 281,-7 143,-15 294,-38 324,-50 41,-17 41,-17 41,-1 0,19 -257,269 -309,302 -24,15 -72,40 -107,55 -53,24 -63,26 -68,13 -5,-12 -1,-14 14,-10 11,3 18,1 15,-4 -7,-10 52,-42 65,-34 5,3 13,-3 19,-13 5,-10 28,-27 50,-37 23,-10 41,-23 41,-30 0,-14 54,-55 72,-55 9,0 9,-3 -2,-10 -15,-9 -12,-11 20,-14 8,-1 14,-7 12,-14 -1,-7 4,-12 11,-12 22,0 58,-31 50,-43 -4,-7 -6,-22 -4,-34 3,-27 -6,-28 -34,-7 -11,8 -48,23 -83,34 -51,16 -67,17 -83,7 -17,-10 -22,-9 -33,5 -11,15 -13,15 -24,-3 -15,-23 -28,-24 -36,-4 -4,10 2,19 17,25 33,13 -3,12 -42,-1 -17,-6 -31,-15 -31,-20 0,-5 -9,-9 -20,-9 -22,0 -26,10 -10,26 7,7 -2,9 -25,6 -21,-3 -35,-10 -35,-18 0,-8 -10,-14 -21,-14 -19,0 -20,2 -8,17 12,15 12,16 -6,9 -39,-16 -87,-27 -92,-23 -2,3 9,13 26,23 36,21 40,34 11,34 -18,0 -20,4 -15,34 6,31 5,34 -26,40 -33,6 -59,-6 -59,-30 0,-7 -8,-18 -19,-23 -10,-6 -21,-23 -24,-38 -12,-55 -19,-58 -88,-31 -35,14 -73,28 -83,32 -15,5 -17,9 -8,18 14,14 16,32 3,24 -4,-3 -17,1 -27,9 -16,11 -17,16 -6,27 11,11 15,10 23,-4 7,-12 21,-18 42,-17 30,1 30,2 7,8 -19,5 -26,16 -32,49 -4,23 -10,46 -13,51 -5,9 90,35 130,36 13,0 21,8 23,23 4,26 -14,29 -38,7 -28,-25 -86,-30 -116,-10 -30,20 -40,15 -25,-13 18,-33 13,-91 -9,-119 -11,-14 -20,-32 -20,-40 0,-11 -7,-13 -26,-9 -17,5 -23,3 -19,-4 3,-5 13,-10 21,-10 8,0 14,-7 14,-16 0,-8 4,-13 9,-9 5,3 13,0 16,-6 4,-5 14,-8 22,-5 11,4 13,2 9,-9 -4,-11 2,-15 27,-15 18,0 42,-6 52,-14 19,-13 18,-15 -7,-47 -14,-19 -44,-45 -67,-59 -44,-27 -49,-44 -25,-78 12,-18 25,-22 72,-23 47,-1 52,-3 27,-9 -26,-7 -24,-8 19,-9 64,-1 75,14 76,104 1,39 5,79 10,90 11,26 12,17 10,-85 -1,-65 -5,-88 -18,-98 -14,-11 -14,-12 5,-12 17,0 21,8 27,61 3,34 6,92 6,128 0,66 20,124 57,161 13,13 14,-3 13,-145 -2,-88 -2,-169 -1,-180 1,-19 8,-20 263,-20 223,-1 272,-3 323,-19 33,-9 71,-20 85,-23 14,-3 35,-14 48,-24 13,-10 36,-20 52,-24 16,-3 34,-13 41,-21 6,-8 21,-14 33,-14 12,0 40,-8 62,-19 21,-10 50,-22 63,-26 21,-6 22,-5 10,8 -8,8 -20,12 -28,9 -10,-4 -9,2 4,22 17,26 17,28 -1,62 -16,30 -17,36 -4,44 12,8 12,10 -2,15 -16,6 -28,32 -33,68 -1,9 -10,26 -19,36 -10,11 -19,25 -21,33 -11,46 -18,59 -26,47 -6,-10 -11,-5 -18,14 -14,36 -72,112 -105,138 -15,11 -24,24 -21,29 3,4 -7,15 -21,25 -15,10 -23,22 -20,31 3,8 -1,14 -10,14 -8,0 -38,25 -67,56 -29,30 -71,64 -94,74 -36,16 -105,61 -123,80 -10,11 -105,67 -140,82 -39,18 -114,38 -175,47 -26,4 -40,11 -40,21 0,12 12,14 65,12 36,-2 70,-7 75,-11 6,-4 33,-16 60,-26 121,-43 255,-122 413,-244 154,-117 203,-163 189,-178 -4,-3 -16,5 -28,18 -20,24 -20,23 1,-8 12,-18 28,-33 36,-33 8,0 14,-6 14,-13 0,-8 9,-22 20,-32 11,-10 20,-26 20,-35 0,-10 7,-23 16,-31 23,-19 46,-68 38,-81 -4,-6 -3,-8 4,-4 14,8 48,-83 73,-194 10,-47 19,-91 19,-97 0,-30 -84,-12 -243,51 -276,108 -239,101 -524,101 h -251 l -25,-27 c -16,-18 -41,-30 -67,-34 -51,-8 -83,-33 -117,-91 -26,-44 -26,-49 -27,-227 0,-121 4,-204 14,-250 14,-68 14,-69 -8,-84 -23,-15 -30,-60 -11,-79 11,-11 7,-260 -5,-304 -6,-20 -2,-33 19,-57 32,-38 28,-55 -26,-118 -38,-44 -39,-48 -39,-119 0,-41 5,-86 11,-101 7,-20 7,-67 -1,-159 -11,-121 -10,-134 8,-184 21,-58 18,-87 -15,-124 -9,-9 -13,-20 -9,-25 10,-10 34,25 47,69 10,30 8,47 -9,95 -18,52 -19,70 -11,154 7,65 6,134 -2,218 l -12,123 40,42 c 69,72 73,95 26,149 -12,14 -13,23 -4,49 14,40 15,285 1,294 -16,10 -11,51 8,68 16,15 17,26 11,79 -4,35 -10,149 -14,253 l -7,190 42,57 c 38,54 44,58 92,64 37,5 59,14 75,32 22,24 33,26 151,35 195,13 341,4 437,-28 44,-15 101,-38 127,-51 26,-13 55,-24 63,-24 9,0 48,-14 87,-31 77,-34 171,-49 182,-30 9,14 -17,138 -51,241 -25,76 -116,247 -178,332 -19,26 -86,86 -152,136 -65,49 -138,106 -161,126 -24,20 -50,36 -57,36 -6,0 -55,22 -107,50 -119,63 -168,81 -242,89 -57,6 -60,8 -71,41 -8,23 -20,36 -35,40 -13,3 -28,14 -34,25 -6,11 -12,22 -14,25 -2,3 -34,7 -70,10 l -67,5 -3,52 c -3,45 -7,55 -32,73 -36,25 -40,40 -115,365 -101,436 -126,525 -146,525 -5,0 -11,-12 -15,-27 z m 75,-202 c 23,-95 62,-261 87,-369 63,-276 71,-301 100,-312 22,-9 24,-15 24,-70 v -60 h 74 c 74,0 75,0 78,-27 2,-23 9,-29 38,-33 l 35,-5 1,-80 c 0,-44 2,-114 3,-155 1,-41 2,-111 2,-154 -1,-76 -2,-78 -19,-63 -37,34 -62,101 -62,168 0,35 -3,101 -7,147 l -6,82 h -136 c -107,0 -141,3 -159,16 -21,14 -22,14 -22,-9 0,-27 -43,-72 -59,-62 -17,10 -13,35 7,36 12,0 11,3 -7,10 -16,6 -21,14 -17,27 5,14 3,14 -9,-2 -16,-21 -20,-46 -7,-46 4,0 13,-15 21,-32 7,-18 15,-27 18,-20 7,17 19,15 41,-9 18,-19 19,-24 6,-66 -17,-55 -18,-83 -4,-83 6,0 10,13 10,29 0,17 5,33 10,36 6,3 10,18 10,32 0,15 10,37 22,50 12,13 18,26 13,30 -4,5 -10,2 -12,-4 -3,-7 -13,-13 -23,-13 -21,0 -29,16 -22,43 4,15 19,17 116,18 197,2 207,-1 180,-54 -17,-31 -39,-32 -39,-1 0,13 6,18 19,16 11,-2 15,1 11,7 -9,16 -185,15 -185,-1 0,-6 -9,-31 -21,-55 -12,-24 -23,-61 -26,-83 -8,-56 -33,-76 -81,-64 -23,6 -41,17 -47,32 -10,22 -35,31 -35,12 0,-18 -20,-11 -20,8 -1,14 -4,13 -20,-7 -23,-26 -27,-49 -7,-34 22,18 57,22 57,7 0,-7 -19,-19 -41,-26 -37,-11 -43,-10 -55,7 -10,14 -11,22 -2,32 8,10 8,17 0,25 -15,15 -15,55 -1,60 9,3 9,10 0,27 -10,18 -10,26 1,38 11,14 11,15 -2,11 -10,-3 -14,-17 -14,-37 1,-17 -2,-31 -7,-31 -13,0 -29,36 -29,64 0,26 0,26 -89,26 -104,0 -101,3 -101,-106 0,-49 -4,-74 -11,-74 -14,0 -7,176 7,190 26,25 254,16 290,-12 7,-5 17,-2 25,9 12,15 12,16 -3,10 -9,-3 -22,1 -28,9 -10,11 -41,14 -141,14 -103,0 -131,3 -143,16 -15,14 -16,14 -17,-3 -7,-196 -17,-301 -32,-324 -10,-14 -21,-52 -25,-84 -4,-35 -12,-60 -21,-63 -10,-3 -12,3 -9,24 3,16 9,37 13,47 6,14 4,16 -11,10 -18,-6 -18,-6 -1,14 12,14 15,23 8,28 -17,10 -13,28 4,21 17,-6 21,9 5,19 -6,4 -10,58 -10,129 0,108 2,125 19,140 18,17 19,17 24,-1 4,-14 5,-14 6,5 1,30 -37,30 -48,0 -5,-14 -10,-17 -15,-10 -13,21 -28,14 -16,-7 13,-25 13,-81 0,-81 -5,0 -10,7 -10,15 0,21 -40,98 -47,91 -3,-3 0,-13 7,-21 12,-14 10,-14 -16,-4 -16,6 -42,13 -59,15 -16,2 -37,7 -45,11 -8,3 -22,5 -31,4 -9,-1 -33,17 -53,40 -20,24 -36,38 -36,33 0,-6 5,-15 12,-22 22,-22 -2,-26 -25,-4 -13,12 -27,19 -32,15 -4,-5 -5,-2 -1,4 4,7 2,21 -3,30 -7,13 -10,14 -11,4 0,-12 -3,-11 -17,2 -10,8 -41,31 -69,50 -29,19 -58,39 -65,45 -8,6 -27,22 -43,35 -17,14 -27,30 -25,42 3,15 14,10 68,-35 35,-29 66,-62 69,-72 4,-15 7,-16 13,-7 6,11 15,7 37,-14 15,-15 33,-27 40,-27 6,0 58,-20 114,-44 103,-45 207,-72 233,-62 7,2 15,15 17,28 2,18 11,24 38,28 29,4 36,10 38,33 3,26 6,27 60,28 31,1 63,1 70,0 8,-1 12,16 12,59 0,55 2,61 25,70 31,12 38,38 110,390 59,290 92,442 102,474 9,30 17,8 62,-183 z M 223.85035,3477.4412 C 227.1905,3472.6002 211,3470 232,3470 c 21,0 29,-6 34,-24 7,-28 29,-36 104,-36 50,0 57,3 97,42 l 43,42 35,-34 c 19,-19 35,-40 35,-48 0,-27 64,-142 122,-218 60,-80 76,-125 38,-104 -11,6 -28,23 -37,38 -27,44 -96,112 -106,105 -6,-4 -7,-1 -3,6 5,7 2,18 -7,24 -8,7 -17,34 -21,60 -4,38 -13,55 -40,81 l -35,32 -24,-23 c -21,-21 -33,-24 -106,-24 -46,0 -85,2 -88,5 -3,3 -12,-1 -19,-9 -12,-11 -16.85854,-178.9052 -16.85854,-1016.9052 0,-734 -3,-1001 -11,-1001 -8,0 -8,-5 1,-15 10,-12 -13.57223,-3.2319 -3,-21 -28,-10 -8.86747,46.763 -22.46822,52.778 9.68368,35.35 -3.91007,2036.7381 2.08993,2057.7381 3.32367,14.9068 -9.00261,21.5174 5.98889,22.0213 6.45387,0.217 7.6213,23.1963 14.09829,13.809 z M 528,3371 c 18,-25 22,-46 26,-155 3,-74 1,-126 -5,-126 -5,0 -9,5 -9,12 0,7 -11,21 -24,33 -16,13 -27,35 -31,65 l -7,45 26,-24 c 14,-14 26,-20 26,-14 0,6 -7,16 -15,23 -19,16 -31,98 -17,121 8,12 8,20 2,24 -6,3 -10,10 -10,16 0,17 16,9 38,-20 z m -106,-34 c -3,-10 1,-23 8,-27 9,-5 13,-62 16,-206 l 4,-199 44,-42 c 50,-46 59,-74 54,-168 l -3,-60 -32,50 c -18,28 -39,60 -48,73 -17,23 -35,29 -35,12 0,-5 7,-10 15,-10 8,0 15,-7 15,-16 0,-8 -4,-12 -10,-9 -16,10 -11,0 15,-31 37,-43 30,-61 -13,-39 -16,9 -20,14 -10,17 7,3 10,9 6,13 -11,12 -20,0 -23,-29 -2,-17 1,-23 10,-20 7,3 21,-7 32,-21 10,-15 32,-43 48,-62 l 30,-36 6,-201 c 6,-199 11,-236 32,-236 7,0 7,4 -1,12 -16,16 -16,41 1,32 8,-5 8,-2 -2,9 -9,12 -10,17 -2,17 9,0 9,5 0,21 -7,14 -9,47 -5,93 3,39 6,79 6,89 v 35 c 0,9 3,36 6,60 5,37 4,41 -12,35 -13,-5 -15,-3 -8,8 7,11 15,239 12,344 0,11 -1,84 -2,163 l -1,143 60,-65 c 64,-69 239,-209 249,-199 3,4 6,-1 6,-10 0,-9 4,-17 10,-17 5,0 25,-15 44,-32 62,-59 96,-80 136,-85 22,-3 38,-9 35,-13 -6,-9 80,-21 108,-15 12,3 47,-1 77,-8 55,-12 55,-13 52,-47 -2,-19 -6,-39 -9,-44 -5,-7 -42,-5 -140,7 -12,1 -25,6 -29,10 -4,4 -16,7 -26,7 -10,0 -26,4 -36,9 -9,4 -44,21 -77,36 -94,42 -221,132 -307,214 l -78,76 v -552 c 0,-304 2,-553 5,-553 3,0 26,21 53,48 74,73 126,115 168,137 21,11 55,31 74,45 57,40 163,82 260,105 30,7 62,14 70,16 11,3 15,-5 15,-33 0,-50 15,-61 17,-12 2,55 2,58 13,64 12,7 25,-59 13,-66 -6,-4 -6,-10 0,-16 11,-11 4,-58 -9,-58 -5,0 -9,5 -9,10 0,6 -16,10 -35,10 -28,0 -38,-5 -47,-25 -12,-28 -28,-33 -28,-10 0,9 -6,12 -15,8 -9,-3 -13,-8 -11,-11 9,-8 -15,-32 -31,-32 -8,0 -11,5 -8,10 3,6 1,10 -4,10 -6,0 -11,-7 -11,-15 0,-8 -5,-15 -11,-15 -5,0 -7,-4 -4,-10 3,-5 2,-10 -3,-10 -16,0 -22,13 -11,27 6,7 9,13 5,13 -9,0 -47,-40 -39,-40 5,-1 -9,-10 -29,-21 -21,-11 -38,-24 -38,-29 0,-6 -9,-10 -20,-10 -21,0 -118,-50 -160,-82 -14,-10 -42,-32 -62,-47 -37,-28 -118,-122 -151,-173 -13,-21 -15,-33 -7,-53 17,-44 11,-90 -20,-171 -32,-84 -41,-94 -82,-94 -21,0 -28,6 -33,31 l -7,30 -89,-3 -89,-3 v 981 981 h 74 c 68,0 73,-2 68,-20 z m 45,7 c -3,-3 -12,-4 -19,-1 -8,3 -5,6 6,6 11,1 17,-2 13,-5 z m 180,-182 c 12,-14 23,-29 23,-34 0,-12 71,-80 78,-74 2,3 13,-6 24,-19 11,-14 24,-25 29,-25 14,0 48,-38 41,-46 -4,-4 -2,-4 5,0 15,8 65,-22 57,-35 -3,-5 -10,-6 -16,-3 -7,4 -8,2 -4,-5 6,-9 11,-9 21,-1 18,15 45,1 85,-47 18,-21 29,-31 25,-23 -4,8 2,4 12,-8 11,-13 26,-22 34,-21 8,2 26,-5 41,-15 16,-10 34,-16 42,-13 8,3 17,-1 20,-9 8,-22 -34,-35 -53,-16 -10,10 -16,11 -19,3 -2,-6 -9,-8 -15,-4 -7,4 -14,8 -17,8 -12,0 -67,43 -112,87 -26,26 -48,44 -48,41 0,-3 -15,8 -33,23 -19,16 -44,36 -57,44 -43,28 -135,104 -149,123 -7,10 -28,34 -47,52 -40,40 -47,73 -12,54 11,-6 32,-23 45,-37 z m -112,-72 c 11,-21 15,-61 15,-147 v -118 l -42,43 c -41,40 -42,43 -25,59 15,16 19,16 27,3 5,-8 12,-11 16,-7 4,3 1,13 -6,22 -12,14 -15,14 -36,0 -28,-18 -29,-17 -9,21 8,16 15,39 15,52 0,22 0,22 27,5 l 28,-18 -28,36 c -29,39 -36,79 -12,79 8,0 21,-13 30,-30 z m 214,-252 c 14,-16 29,-28 34,-28 5,0 16,-7 25,-17 16,-15 14,-16 -26,-11 -23,4 -44,2 -47,-3 -3,-4 -12,-6 -20,-2 -9,3 -21,1 -28,-5 -9,-8 -12,3 -10,51 0,34 2,66 2,71 1,10 33,-15 70,-56 z m 477,-68 c 3,0 2,5 -2,12 -4,7 -3,8 4,4 7,-4 12,-15 12,-24 0,-13 2,-14 9,-3 6,9 11,10 15,2 7,-12 4,-13 -29,-14 -52,-1 -64,3 -62,22 1,16 5,17 25,10 13,-5 26,-9 28,-9 z m 404,-27 c 0,-28 3,-34 10,-23 8,12 10,11 10,-7 0,-12 6,-23 13,-26 13,-5 -63,-90 -96,-109 -32,-17 -32,1 -1,33 19,21 25,33 17,36 -14,5 -18,53 -5,53 7,0 32,42 32,54 0,2 -19,0 -42,-5 -43,-10 -68,-6 -68,10 0,10 34,16 98,19 31,2 32,0 32,-35 z m 494,31 c 9,-3 16,-17 16,-30 0,-14 7,-27 18,-31 24,-9 32,-23 32,-60 0,-22 -6,-36 -19,-43 -27,-14 -41,-13 -41,4 0,8 -7,16 -15,20 -8,3 -15,11 -15,17 0,7 -8,18 -17,25 -13,9 -15,16 -7,24 9,9 18,5 39,-14 28,-26 55,-34 55,-16 0,6 -6,10 -13,10 -23,0 -50,37 -44,60 6,22 4,23 -32,13 -23,-6 -23,-7 -6,-13 18,-6 17,-8 -9,-25 -28,-18 -29,-18 -42,0 -12,16 -12,21 2,36 21,23 69,34 98,23 z m -805,-46 c 1,-5 -5,-8 -13,-8 -9,0 -12,8 -8,27 5,25 6,25 13,8 4,-11 8,-23 8,-27 z m 1111,1 c 0,-5 16,-8 35,-6 25,3 43,-2 60,-15 13,-10 27,-19 29,-19 22,-2 46,-13 46,-21 0,-5 4,-7 9,-3 5,3 12,-4 16,-15 4,-11 10,-18 14,-15 5,2 18,-3 30,-13 11,-9 32,-25 46,-35 14,-10 25,-23 25,-30 0,-8 -3,-8 -8,-2 -4,6 -13,11 -19,12 -20,4 -102,70 -96,77 4,3 -1,6 -10,6 -10,0 -17,4 -17,9 0,10 -20,18 -60,26 -12,2 -28,9 -36,16 -8,6 -14,8 -14,3 0,-5 -5,-2 -10,6 -7,10 -10,11 -10,2 0,-9 -8,-9 -31,3 -17,9 -37,14 -45,11 -10,-4 -12,-2 -8,6 5,7 0,9 -14,6 -14,-4 -19,-2 -16,7 4,10 15,10 45,3 21,-6 39,-14 39,-19 z m -1550,1 c 0,-19 -7,-20 -95,-20 -88,0 -95,1 -95,20 0,19 7,20 95,20 88,0 95,-1 95,-20 z m 287,4 c -3,-3 -12,-4 -19,-1 -8,3 -5,6 6,6 11,1 17,-2 13,-5 z m 404,-20 c -13,-17 -21,-41 -21,-65 0,-21 -5,-41 -11,-44 -17,-11 -23,3 -8,21 12,15 12,17 0,13 -32,-11 -36,-37 -11,-64 13,-14 32,-25 42,-25 24,0 78,-28 78,-40 0,-5 -7,-7 -15,-4 -13,5 -15,-7 -14,-86 2,-77 5,-96 21,-109 10,-8 18,-25 18,-38 0,-13 8,-24 20,-28 16,-5 30,-35 16,-35 -2,0 -12,-3 -22,-7 -14,-5 -16,-3 -11,11 5,11 3,16 -5,14 -20,-7 -20,-26 1,-33 15,-4 19,-14 18,-40 -1,-19 -5,-35 -10,-35 -15,0 -109,99 -105,111 7,21 59,34 69,18 7,-11 9,-9 9,6 -1,11 -13,29 -27,39 -23,17 -26,18 -20,2 4,-11 1,-19 -11,-23 -9,-3 -25,-13 -35,-21 -23,-21 -33,-8 -18,25 11,23 10,25 -3,13 -13,-10 -19,-10 -31,0 -9,7 -15,8 -15,2 0,-5 7,-13 16,-16 17,-6 16,-47 -2,-53 -11,-4 -44,58 -44,82 0,8 -6,15 -14,15 -20,0 -26,36 -10,57 13,17 14,17 20,-4 4,-16 14,-23 30,-23 17,0 24,-6 24,-20 0,-23 27,-27 55,-7 13,10 16,21 11,41 -7,28 -35,34 -44,8 -2,-7 2,-10 11,-6 19,7 33,-14 18,-29 -9,-9 -16,-8 -29,1 -9,7 -27,17 -40,22 -25,11 -21,33 3,23 8,-3 15,0 15,6 0,6 -5,11 -11,11 -5,0 -7,5 -3,11 4,7 8,19 9,28 6,42 18,62 34,56 9,-4 32,-9 51,-12 l 35,-4 -44,20 c -57,28 -64,27 -80,-11 l -13,-33 -9,30 c -6,20 -4,48 6,88 8,32 15,74 15,92 0,51 7,62 39,57 16,-2 32,1 35,7 4,6 14,11 22,11 12,0 11,-5 -5,-26 z m 653,-41 c 3,-23 1,-45 -4,-48 -6,-4 -10,15 -10,46 0,61 5,62 14,2 z m -160,-14 c 53,-47 72,-77 58,-91 -5,-5 -19,4 -35,26 -15,19 -42,44 -62,56 -35,22 -47,50 -21,50 7,0 34,-18 60,-41 z m -1094,16 c 0,-13 -22,-15 -140,-15 -118,0 -140,2 -140,15 0,13 22,15 140,15 118,0 140,-2 140,-15 z m -434,-43 c 17,-27 27,-82 15,-82 -14,0 -61,63 -61,82 0,32 27,32 46,0 z m 514,3 c 0,-13 -27,-15 -180,-15 -153,0 -180,2 -180,15 0,13 27,15 180,15 153,0 180,-2 180,-15 z m 956,-16 c -3,-17 -6,-38 -6,-45 0,-8 -4,-14 -10,-14 -5,0 -10,20 -10,45 0,35 4,45 16,45 13,0 15,-7 10,-31 z m -328,1 c 3,-7 0,-10 -7,-6 -6,4 -11,0 -11,-9 0,-11 5,-15 15,-12 23,10 28,-11 8,-38 -23,-31 -33,-31 -33,1 0,14 -4,23 -10,19 -5,-3 -6,-13 -3,-23 6,-15 5,-15 -10,-4 -9,8 -21,11 -27,7 -21,-13 -9,14 22,49 32,37 48,41 56,16 z m 385,-26 c 22,-29 20,-34 -19,-37 -29,-2 -42,18 -30,49 8,21 29,16 49,-12 z m -873,-9 c 0,-13 -34,-15 -250,-15 -216,0 -250,2 -250,15 0,13 34,15 250,15 216,0 250,-2 250,-15 z m 1620,-45 c 16,0 20,-4 16,-16 -3,-8 -2,-12 4,-9 6,3 31,-14 57,-39 26,-25 44,-46 40,-46 -4,0 -2,-6 5,-14 7,-8 17,-11 22,-8 5,3 6,0 3,-5 -4,-6 0,-14 9,-17 10,-4 14,-14 11,-26 -3,-12 -1,-17 5,-14 5,3 16,-3 24,-15 9,-12 21,-18 27,-15 7,4 9,4 5,0 -6,-7 8,-28 43,-65 22,-23 51,-71 43,-71 -4,0 3,-8 14,-19 12,-10 22,-22 22,-26 0,-4 8,-14 18,-22 11,-10 12,-12 2,-8 -13,6 -13,5 0,-7 22,-19 19,-51 -5,-54 -11,-2 -27,-4 -35,-6 -17,-3 -20,2 -20,35 0,18 2,19 10,7 5,-8 10,-10 10,-5 0,16 -84,156 -111,185 -62,66 -98,114 -93,121 3,5 0,9 -6,9 -6,0 -8,5 -5,10 3,6 1,10 -5,10 -7,0 -9,7 -6,16 4,11 2,15 -8,11 -7,-3 -23,4 -34,16 -11,12 -34,33 -52,47 -17,14 -42,33 -53,43 l -22,18 22,-10 c 12,-6 31,-11 43,-11 z m -1490,-5 c 0,-13 -42,-15 -315,-15 -273,0 -315,2 -315,15 0,13 42,15 315,15 273,0 315,-2 315,-15 z m 134,-69 c 22,-41 9,-78 -24,-69 -17,4 -20,14 -20,54 0,59 17,65 44,15 z m -134,9 c 0,-13 -42,-15 -315,-15 -273,0 -315,2 -315,15 0,13 42,15 315,15 273,0 315,-2 315,-15 z m 0,-50 c 0,-13 -42,-15 -315,-15 -273,0 -315,2 -315,15 0,13 42,15 315,15 273,0 315,-2 315,-15 z m 0,-50 c 0,-13 -42,-15 -315,-15 -273,0 -315,2 -315,15 0,13 42,15 315,15 273,0 315,-2 315,-15 z m 62,-37 c -6,-6 -15,-8 -19,-4 -4,4 -1,11 7,16 19,12 27,3 12,-12 z m -62,-18 c 0,-20 -7,-20 -315,-20 -308,0 -315,0 -315,20 0,20 7,20 315,20 308,0 315,0 315,-20 z m 689,-19 c -3,-6 -10,-7 -18,-2 -7,5 -10,14 -6,21 9,14 29,-2 24,-19 z m -709,-41 c 0,-20 -7,-20 -305,-20 -298,0 -315.08526,2.0298 -315.08526,22.0298 0,20 17.08526,17.9702 315.08526,17.9702 298,0 305,0 305,-20 z m 853,-48 c -2,-10 5,-26 16,-36 20,-18 29,-55 14,-57 -5,0 -18,-2 -30,-3 -39,-4 -38,-16 0,-16 30,0 37,-4 37,-20 0,-24 -16,-26 -28,-3 -9,14 -11,14 -21,-5 -9,-16 -21,-22 -47,-22 -42,0 -110,32 -81,38 10,2 29,15 43,29 20,20 32,24 55,19 22,-4 29,-2 29,10 0,11 -6,13 -21,9 -20,-7 -20,-6 3,34 24,43 39,54 31,23 z m 654,3 c 20,-8 34,-17 31,-20 -7,-7 -128,18 -128,27 0,13 58,9 97,-7 z m -1747,-15 c 0,-19 -7,-20 -185,-20 -178,0 -185,1 -185,20 0,19 7,20 185,20 178,0 185,-1 185,-20 z m 50,10 c 0,-5 -5,-10 -11,-10 -5,0 -7,5 -4,10 3,6 8,10 11,10 2,0 4,-4 4,-10 z m 637,-16 c 4,-10 -1,-20 -11,-26 -14,-8 -15,-13 -5,-24 10,-12 8,-17 -7,-29 -11,-8 -14,-14 -6,-15 8,0 10,-8 6,-25 -6,-24 -5,-25 21,-15 33,12 43,6 25,-15 -8,-9 -8,-15 -2,-15 6,0 14,5 17,10 10,15 35,12 42,-6 3,-9 0,-20 -7,-24 -20,-13 -4,-38 26,-42 27,-3 27,-4 10,-21 -17,-17 -19,-16 -54,13 -21,17 -47,39 -59,50 -13,10 -36,21 -53,25 -35,8 -48,23 -26,31 9,4 16,18 16,34 0,16 5,32 10,35 6,3 10,19 10,34 0,15 3,31 7,34 12,12 34,7 40,-9 z m 291,-3 c 3,-8 -1,-12 -9,-9 -7,2 -15,10 -17,17 -3,8 1,12 9,9 7,-2 15,-10 17,-17 z m 150,0 c 3,-8 -1,-12 -9,-9 -7,2 -15,10 -17,17 -3,8 1,12 9,9 7,-2 15,-10 17,-17 z m -619,-22 c 17,-17 31,-35 31,-39 0,-5 7,-7 15,-4 9,4 15,0 15,-10 0,-9 5,-16 10,-16 19,0 -8,-38 -32,-46 -20,-6 -107,-8 -113,-2 -2,2 -7,36 -10,76 l -8,72 h 31 c 21,0 40,-10 61,-31 z m -599,-19 c -8,-5 -19,-10 -25,-10 -5,0 -3,5 5,10 8,5 20,10 25,10 6,0 3,-5 -5,-10 z m -50,-20 c 0,-19 -7,-20 -115,-20 -108,0 -115,1 -115,20 0,19 7,20 115,20 108,0 115,-1 115,-20 z m 380,-29 c 0,-10 -24,-21 -47,-21 -13,0 -13,3 -3,15 13,16 50,21 50,6 z m 1064,-26 c -3,-7 0,-16 7,-21 8,-4 10,-3 5,5 -8,13 18,44 28,33 4,-3 37,-8 74,-9 101,-4 123,-3 142,7 9,5 20,7 23,3 4,-3 28,-7 54,-9 110,-8 140,-13 176,-28 21,-9 42,-14 47,-11 6,4 10,2 10,-4 0,-5 11,-8 25,-6 14,1 28,-1 31,-6 2,-4 12,-5 21,-2 11,4 14,3 9,-5 -4,-7 0,-12 11,-13 56,-4 78,-16 78,-43 0,-24 -1,-24 -35,-10 -19,8 -37,20 -41,26 -4,6 -18,12 -32,13 -13,2 -33,8 -44,14 -11,5 -23,7 -27,4 -3,-3 -6,-2 -6,3 0,5 -14,11 -31,12 -17,1 -44,9 -61,18 -16,8 -37,12 -46,9 -10,-4 -113,-7 -231,-8 -196,0 -214,1 -223,18 -8,14 -8,16 2,10 10,-6 12,-4 7,7 -4,12 -1,14 13,11 10,-3 16,-11 14,-18 z M 810,2065 c 0,-12 -13,-15 -60,-15 -47,0 -60,3 -60,15 0,12 13,15 60,15 47,0 60,-3 60,-15 z m 2277,-37 c -3,-8 -6,-5 -6,6 -1,11 2,17 5,13 3,-3 4,-12 1,-19 z M 737,2017 c 6,-4 13,-2 15,5 3,7 7,5 11,-6 4,-9 3,-15 -2,-12 -5,3 -25,-12 -45,-34 l -36,-40 v 48 c 0,43 2,48 23,47 13,-1 28,-4 34,-8 z m 2453,-15 c 14,-11 19,-23 15,-35 -8,-19 -47,-33 -64,-22 -15,9 -14,62 2,68 20,9 24,8 47,-11 z m 48,-73 c -10,-7 -10,-9 2,-10 10,0 8,-3 -5,-8 -32,-13 -49,-2 -29,20 9,10 23,15 31,12 12,-5 12,-7 1,-14 z"
         id="path184"
         sodipodi:nodetypes="ccccccccccccccscscssscccsscccccccccccccscccsccsccscccccccccsccccscccccssscccccscsccssscccsscscccccscsccsccccssccssccsccccscscccsccsscccssccccccccscssscccccscccccccscsssccscscccccccscccccccccccsccscscccccscccscccsccscsssssccscccccsccccccsssssscsccsccscccccccscccssccccccccscccccccccccssccccssscscccscscccccccsccccccccsscccscccccccsccssscssscccsccsccccsccsccccccccscssccsscccssccccsccccccscssccccssccscccccccccccccccccscccccscccccccssssccscscscccccccscccscccccccccccccccccccccccssccccccsccccsscccccsccccscsccccsccsccscscccccsccccsscssccscccsccsscccscccscccscccccssssscccccsccccccccccccsccccccsssccccscssccccccccccccccscccccccsccccsscscccsccccccccccsscssccccssccssccccscccsccccccccccssscccccccccccssccsccssccscccccssccccccccssccccsscscccscccsssscsccscssscscsccsscccccsccccccsccccccsccscccccccscccscsccscscccccccsccccccccscccsccsccccccccsssscccccsscsccccsscscscscscscscscssccccccccscccscccscsccsscccssccscsccccccsssssscccccsccccsscccscscccccssccccsccccsccssccsscsccscccssccccccccsssccscccsccsccscssssscsscssssscsssscccsccsccccccccccsssssscsssssccscccccscscccccscsccscsccsccccssssssccscssssssssssssssssscssssssccccsssssccccssccscscsccccsscssssssscssccccccccsccccsccccscsccccccccccccsscsscsccsssssssssssssscsccccccccccscccccscscccssccccscccsssssccccsccsccscsccccccccccc" />
    </g>
    <path
       d="M1821 3860 c-1 -8 -7 -51 -11 -95 -15 -130 -21 -159 -32 -144 -7 10 -8 7 -5 -10 3 -13 1 -35 -4 -50 l-9 -26 19 23 c22 26 48 21 54 -11 3 -12 2 5 -1 37 -4 50 -2 61 13 72 17 13 18 15 2 27 -13 9 -17 32 -20 102 -1 50 -4 83 -6 75z"
       id="path186" />
    <path
       d="m 361.36257,3328.6706 c -1,-8 -7,-51 -11,-95 -15,-130 -21,-159 -32,-144 -7,10 -8,7 -5,-10 3,-13 1,-35 -4,-50 l -9,-26 19,23 c 22,26 48,21 54,-11 3,-12 2,5 -1,37 -4,50 -2,61 13,72 17,13 18,15 2,27 -13,9 -17,32 -20,102 -1,50 -4,83 -6,75 z"
       id="path186-5" />
    <path
       d="m 366.1303,2269.6549 c -1.14118,13.0505 -7.98829,83.1971 -12.55303,154.9749 -17.11778,212.0709 -23.9649,259.379 -36.51793,234.9093 -7.9883,-16.3132 -9.12949,-11.4192 -5.70593,16.3132 3.42355,21.2071 1.14118,57.096 -4.56474,81.5656 l -10.27067,42.4142 21.68252,-37.5202 c 25.10608,-42.4142 54.7769,-34.2576 61.62401,17.9444 3.42355,19.5758 2.28237,-8.1565 -1.14119,-60.3586 -4.56474,-81.5657 -2.28237,-99.5101 14.83541,-117.4546 19.40015,-21.2071 20.54134,-24.4697 2.28237,-44.0455 -14.83541,-14.6818 -19.40015,-52.202 -22.8237,-166.394 -1.14119,-81.5658 -4.56475,-135.3991 -6.84712,-122.3487 z"
       id="path186-5-2"
       style="stroke-width:1.36442" />
    <path
       d="M1795 3532 c-4 -24 -14 -49 -21 -57 -18 -18 -18 -25 1 -25 22 0 18 -17 -6 -23 -18 -5 -20 -10 -14 -39 l7 -33 -21 19 c-11 11 -21 14 -21 8 0 -6 15 -21 33 -33 45 -32 46 -35 41 -117 -3 -52 -1 -82 10 -103 13 -27 13 -29 -4 -29 -11 0 -20 10 -24 25 -4 14 -13 25 -21 25 -14 0 -35 29 -35 49 0 6 8 11 18 11 19 0 42 18 42 33 0 5 -6 4 -13 -2 -19 -15 -27 -4 -27 35 0 18 -5 36 -11 40 -7 4 -9 0 -5 -14 4 -11 2 -23 -4 -27 -7 -4 -9 -18 -5 -32 3 -14 1 -31 -6 -39 -8 -10 -6 -19 10 -40 35 -44 26 -74 -10 -31 -10 12 -18 17 -19 10 0 -6 5 -15 10 -18 19 -12 10 -25 -17 -25 -14 0 -24 -3 -20 -6 3 -3 65 -9 136 -13 l131 -6 0 32 c0 17 3 38 6 46 4 11 0 14 -13 11 -15 -4 -18 -12 -15 -40 5 -37 -10 -46 -27 -16 -10 16 -12 16 -25 -1 -13 -16 -14 -16 -30 7 -9 14 -16 33 -16 42 0 16 2 16 20 -1 19 -17 20 -17 20 0 0 17 1 17 22 -1 17 -14 20 -15 9 -2 -7 9 -10 22 -6 28 8 14 -8 13 -22 -1 -15 -15 -43 -4 -43 16 0 11 11 15 38 15 33 1 35 2 20 14 -10 7 -18 22 -19 32 0 16 -2 16 -9 -3 -5 -13 -14 -23 -20 -23 -19 0 -23 30 -6 49 19 21 21 42 4 59 -10 10 -10 15 -1 20 6 4 14 19 18 34 5 21 2 29 -15 38 -16 9 -19 14 -11 20 9 5 10 22 3 66 l-9 59 -8 -43z m7 -143 c-1 -13 -5 -31 -8 -39 -9 -22 -26 27 -18 52 8 27 30 16 26 -13z"
       id="path188" />
    <path
       d="M1632 3048 c-7 -7 -12 -18 -12 -25 0 -7 -4 -13 -10 -13 -5 0 -10 -12 -10 -28 l0 -27 158 3 c89 2 161 8 167 14 7 7 -1 9 -25 6 -42 -6 -96 22 -78 40 8 8 5 9 -12 5 l-23 -6 29 -25 29 -25 -70 6 c-90 7 -105 14 -105 43 0 27 -6 26 140 26 94 0 95 0 30 8 -103 12 -195 11 -208 -2z m18 -37 c0 -5 -6 -12 -12 -14 -7 -3 -4 -6 7 -6 17 -1 17 -3 5 -11 -34 -22 -56 0 -28 28 14 14 28 16 28 3z"
       id="path208" />
    <path
       d="m 1556.3744,2931 c -8.5415,-5 -37.3691,-12 -62.9936,-16 -80.0766,-12 -26.6922,-25 108.9042,-25 75.8059,0 124.9196,-4 124.9196,-10 0,-5 7.4738,-10 16.0153,-10 8.5415,0 24.5568,-9 34.166,-20 22.4215,-24 35.2338,-26 35.2338,-4 0,21 64.0613,44 121.7165,44 56.5874,0 73.6705,16 24.5568,23 -18.1507,2 -37.3691,0 -40.5722,-6 -4.2707,-5 -12.8122,-6 -19.2184,-3 -6.4061,4 -9.6092,12 -6.4061,17 11.7446,16 -7.4738,9 -22.4215,-8 -12.8122,-16 -13.8799,-16 -14.9476,-2 0,13 -12.8123,17 -55.5198,19 -130.258,5 -194.3193,2 -198.5901,-9 -3.203,-8 -8.5415,-7 -17.083,3 -7.4738,10 -17.083,12 -27.7599,7 z m 244.5007,-27 c 36.3014,-7 42.7075,-18 16.0153,-28 -23.4891,-9 -54.4521,1 -61.9259,19 -6.4061,17 -2.1354,18 45.9106,9 z"
       id="path218"
       style="stroke-width:1.03329" />
    <path
       d="m 2048.8762,2894.2622 c 41.6254,-35.642 208.127,-56.6079 208.127,-27.2556 0,12.5795 -22.2002,23.0625 -47.1754,23.0625 -27.7502,0 -80.4758,6.2898 -119.3262,12.5796 -49.9505,10.4829 -61.0506,8.3862 -41.6254,-8.3865 z"
       id="path222"
       style="stroke-width:2.41208" />
    <path
       d="M1755 2757 c-16 -6 -32 -12 -34 -14 -2 -1 4 -14 13 -28 10 -15 14 -34 11 -45 -4 -12 -2 -20 5 -20 8 0 11 13 8 35 -2 19 -1 35 3 35 13 0 31 -29 24 -40 -3 -5 1 -10 9 -10 22 0 20 20 -6 47 -22 23 -18 47 4 25 19 -19 30 -14 18 8 -12 22 -13 22 -55 7z"
       id="path230" />
    <path
       d="M421 2908 c0 -15 4 -30 9 -33 14 -9 12 -48 -2 -64 -8 -8 -8 -11 -2 -8 7 4 35 -12 63 -34 52 -42 71 -41 26 1 -13 12 -22 26 -20 30 3 4 -4 10 -15 13 -11 3 -20 10 -20 16 0 6 8 8 18 5 10 -4 4 6 -15 24 -17 17 -33 41 -36 54 -4 21 -4 21 -6 -4z"
       id="path238" />
    <path
       d="M433 2570 c4 -29 12 -58 18 -66 9 -11 8 -14 -5 -14 -9 0 -16 -4 -16 -9 0 -5 -3 -18 -7 -28 -4 -13 0 -11 16 7 l22 25 -6 -25 c-4 -14 -14 -30 -22 -37 -11 -8 -12 -16 -4 -31 6 -12 8 -70 4 -158 -4 -89 -2 -147 4 -159 15 -28 27 -145 15 -145 -5 0 -13 28 -18 63 -7 45 -9 -25 -9 -256 l0 -318 21 5 c13 4 24 1 27 -7 3 -6 19 -20 36 -30 24 -14 32 -15 35 -5 2 7 14 44 26 81 12 38 19 71 16 74 -3 4 -6 0 -6 -7 0 -8 -17 3 -38 23 -37 36 -62 47 -62 27 0 -5 7 -10 15 -10 22 0 69 -76 60 -97 -6 -16 -8 -16 -26 7 -37 47 -89 120 -89 125 0 3 10 4 22 2 15 -1 23 4 26 18 2 11 7 24 12 28 10 11 51 -46 53 -73 2 -25 14 -26 21 -2 16 55 -28 180 -69 196 -22 8 -19 -8 6 -30 27 -24 49 -67 49 -95 l0 -22 -26 24 c-14 13 -33 41 -41 62 -11 27 -19 35 -26 28 -8 -8 -8 -20 1 -44 8 -21 9 -33 2 -35 -6 -2 -8 -8 -4 -13 3 -5 1 -9 -4 -9 -14 0 -23 57 -16 101 4 21 12 39 19 39 7 0 19 8 26 17 12 15 12 16 -3 10 -22 -8 -23 6 -3 23 21 18 51 -11 67 -62 12 -40 22 -48 32 -22 3 8 2 13 -2 11 -4 -3 -8 53 -8 124 -2 88 1 129 9 129 7 0 7 4 -1 12 -14 14 -16 52 -2 43 6 -3 10 -2 10 4 0 5 -8 12 -18 15 -24 8 -83 69 -86 89 -1 9 -10 25 -21 37 -27 30 -13 33 25 5 45 -33 60 -32 27 3 -15 15 -27 34 -27 42 0 11 -3 11 -12 2 -7 -7 -16 -12 -22 -12 -6 0 -5 5 2 12 7 7 12 20 12 30 0 23 5 23 41 -3 38 -27 37 -11 -2 24 -24 21 -29 31 -24 49 10 33 13 33 35 13 34 -31 22 2 -15 44 -38 42 -34 58 13 46 l27 -7 -21 24 c-12 13 -24 35 -28 50 -3 16 -12 27 -18 25 -7 -1 -14 11 -17 27 -3 16 -12 31 -20 34 -11 4 -13 -5 -8 -48z m56 -77 c1 -7 -3 -13 -8 -13 -10 0 -21 47 -12 55 6 6 19 -21 20 -42z m1 -78 c0 -16 -27 -32 -37 -21 -7 7 16 36 28 36 5 0 9 -7 9 -15z m31 -316 c15 -19 31 -46 34 -61 12 -47 -21 -34 -53 22 -27 46 -29 48 -45 33 -22 -22 -22 -5 -1 25 20 28 30 25 65 -19z m12 -107 c12 -21 20 -55 21 -95 1 -34 5 -68 10 -75 13 -21 -7 -13 -36 15 -22 21 -31 24 -40 15 -14 -14 -32 -16 -24 -3 3 5 -1 14 -9 21 -15 12 -21 40 -9 40 3 0 14 -10 25 -22 l18 -23 1 38 c0 41 5 45 32 20 25 -22 23 -13 -7 27 -26 36 -34 85 -13 78 7 -3 21 -19 31 -36z m-73 -482 c-15 -28 -24 -19 -16 16 5 19 10 24 17 17 8 -8 7 -18 -1 -33z m88 -66 c2 -1 0 -13 -4 -28 -7 -30 -22 -34 -31 -8 -4 9 -11 20 -16 23 -5 4 -6 16 -2 28 7 22 7 22 28 4 12 -10 23 -18 25 -19z"
       id="path240" />
    <path
       d="M2168 2447 c27 -29 27 -35 1 -64 -20 -20 -20 -23 -5 -29 10 -4 23 -1 29 6 10 10 8 12 -5 7 -24 -9 -23 5 2 20 12 8 21 9 25 3 8 -13 45 -13 45 0 0 6 -5 10 -11 10 -5 0 -7 5 -4 10 4 6 -5 10 -19 10 -19 0 -26 5 -26 19 0 10 -7 22 -16 25 -31 12 -37 6 -16 -17z"
       id="path252" />
    <path
       d="m 1966.9121,3089.7344 c 24.674,-39.6948 24.674,-47.9075 0.9138,-87.6022 -18.277,-27.3758 -18.277,-31.4821 -4.5692,-39.6948 9.1385,-5.4752 21.0186,-1.3687 26.5017,8.2127 9.1385,13.6879 7.3108,16.4255 -4.5693,9.5815 -21.9324,-12.3191 -21.0186,6.844 1.8277,27.3757 10.9663,10.9502 19.1909,12.3191 22.8463,4.1064 7.3109,-17.7942 41.1234,-17.7942 41.1234,0 0,8.2127 -4.5693,13.6878 -10.0524,13.6878 -4.5692,0 -6.3969,6.8439 -3.6554,13.6878 3.6554,8.2127 -4.5692,13.6879 -17.3632,13.6879 -17.3632,0 -23.7601,6.844 -23.7601,26.0069 0,13.6879 -6.397,30.1132 -14.6217,34.2196 -28.3294,16.4254 -33.8125,8.2128 -14.6216,-23.2693 z"
       id="path252-7"
       style="stroke-width:1.11842" />
    <path
       d="m 1863.5369,3587.8953 c 20.5724,-67.19 20.5724,-81.0913 0.7619,-148.2815 -15.2389,-46.3378 -15.2389,-53.2885 -3.8098,-67.1899 7.6195,-9.2674 17.5247,-2.3169 22.0965,13.9014 7.6194,23.1689 6.0954,27.8029 -3.8098,16.2185 -18.2867,-20.8523 -17.5247,11.5844 1.524,46.3375 9.1433,18.5355 16.0007,20.8524 19.0485,6.9509 6.0955,-30.1198 34.2874,-30.1198 34.2874,0 0,13.9015 -3.8097,23.1689 -8.3814,23.1689 -3.8097,0 -5.3335,11.5844 -3.0477,23.169 3.0477,13.9013 -3.8097,23.169 -14.4769,23.169 -14.477,0 -19.8106,11.5844 -19.8106,44.0209 0,23.1689 -5.3335,50.9717 -12.1911,57.9225 -23.6203,27.8027 -28.1919,13.9013 -12.191,-39.3872 z"
       id="path252-3"
       style="stroke-width:1.32866" />
    <path
       d="m 1955.9718,3329.5831 c -20.346,-41.7795 -20.346,-50.4237 -0.7535,-92.2033 15.0711,-28.8136 15.0711,-33.1357 3.7678,-41.7797 -7.5356,-5.7626 -17.3319,-1.4407 -21.8533,8.644 -7.5355,14.4068 -6.0282,17.2883 3.7679,10.0849 18.0854,-12.9662 17.3319,7.2034 -1.5072,28.8134 -9.0427,11.5256 -19.3694,-17.7919 -18.8389,4.3222 -6.0284,-18.729 -33.9101,-18.729 -33.9101,0 0,8.644 3.7677,14.4066 8.2892,14.4066 3.7678,0 5.2748,7.2034 3.0143,14.4069 -3.0143,8.644 3.7677,14.4067 14.3174,14.4067 14.3176,0 19.5927,7.2035 19.5927,27.3729 0,14.4069 5.2747,31.6948 12.0568,36.0171 23.3603,17.288 27.8817,8.644 12.0569,-24.4917 z"
       id="path252-3-6"
       style="stroke-width:1.04194"
       sodipodi:nodetypes="ccsccccsscsscc" />
    <path
       d="M1057 1949 c-15 -12 -39 -24 -54 -28 -15 -4 -28 -12 -30 -18 -7 -19 73 17 98 43 27 29 23 30 -14 3z"
       id="path260" />
    <path
       d="M1618 1748 c3 -76 7 -96 22 -109 27 -23 21 -117 -10 -184 -13 -27 -24 -65 -24 -82 0 -18 -4 -33 -10 -33 -5 0 1 -11 14 -25 17 -19 20 -28 12 -38 -9 -10 -4 -16 24 -26 42 -15 54 -10 19 9 -35 19 -31 30 11 30 19 0 44 5 55 10 16 9 19 7 19 -12 1 -21 1 -21 11 -5 15 27 7 31 -68 31 -43 1 -68 5 -70 13 -9 25 51 33 243 33 l194 0 0 40 c0 26 -9 52 -26 77 -24 35 -25 45 -22 123 2 67 8 91 24 115 12 17 24 49 27 73 l5 43 -224 -3 c-123 -2 -225 0 -227 5 -1 4 -1 -35 1 -85z m350 52 l63 0 -5 -32 c-5 -46 -26 -98 -38 -98 -6 0 -19 11 -29 24 -34 43 -176 96 -162 61 3 -9 -1 -15 -10 -15 -8 0 -17 4 -19 10 -1 5 -21 -13 -43 -40 -51 -62 -70 -64 -74 -9 -1 23 1 54 4 70 6 28 7 28 93 32 48 2 103 2 122 0 19 -1 63 -3 98 -3z m-43 -97 c19 -16 35 -36 35 -45 0 -10 5 -18 10 -18 6 0 10 -24 10 -53 0 -47 -3 -55 -25 -67 -14 -7 -25 -17 -25 -21 0 -5 -18 -18 -40 -29 -44 -23 -90 -20 -145 8 -52 26 -58 38 -52 97 7 68 25 106 58 122 15 7 32 20 40 29 19 24 91 11 134 -23z m89 -245 c-2 -4 0 -9 6 -13 5 -3 10 -19 10 -35 0 -25 -4 -29 -39 -35 -22 -4 -48 -3 -58 2 -10 5 -76 10 -148 12 -71 1 -131 4 -133 6 -5 5 29 74 40 81 6 4 13 3 17 -2 3 -5 22 -17 41 -27 39 -20 101 -16 149 10 14 7 33 13 42 13 8 0 24 6 34 14 17 12 21 12 31 -2 7 -9 10 -20 8 -24z"
       id="path270" />
    <path
       d="M1814 1648 c3 -29 6 -81 6 -115 0 -56 2 -63 19 -63 18 0 19 3 9 31 -11 31 -6 149 7 182 6 14 2 17 -20 17 -28 0 -28 0 -21 -52z"
       id="path272" />
    <path
       d="M811 1786 c-13 -14 -29 -22 -37 -19 -9 3 -14 -2 -14 -13 0 -10 -10 -28 -22 -41 -12 -13 -17 -23 -12 -23 9 0 76 66 103 103 19 25 8 21 -18 -7z"
       id="path278" />
    <path
       d="M1781 1319 c5 -10 20 -21 34 -25 13 -3 26 -13 28 -22 4 -15 5 -15 6 1 0 9 8 17 16 17 9 0 12 -6 8 -17 -11 -32 -36 -43 -99 -43 -106 0 -143 -30 -93 -76 14 -12 19 -27 17 -45 -4 -25 -3 -25 21 -12 24 12 26 11 29 -6 2 -14 8 -18 19 -14 10 4 14 2 9 -5 -3 -6 -2 -13 4 -17 6 -4 7 -11 4 -17 -5 -7 -12 -4 -21 7 -16 22 -17 12 -2 -16 9 -17 7 -21 -10 -26 -12 -3 -21 -12 -21 -19 0 -8 -4 -14 -10 -14 -5 0 -14 -9 -20 -20 -19 -36 11 -23 57 25 44 46 63 50 63 14 0 -10 6 -19 14 -19 8 0 33 -21 55 -47 l41 -46 25 23 c30 28 26 36 -52 120 l-56 61 38 39 c21 22 37 42 34 44 -2 2 -41 7 -86 11 -63 6 -83 5 -83 -5 0 -7 7 -10 15 -6 9 3 15 0 15 -9 0 -7 40 -62 90 -120 84 -100 104 -139 60 -115 -24 13 -80 81 -80 98 0 7 -4 11 -9 8 -5 -3 -17 7 -27 22 -32 49 -119 142 -134 142 -10 1 -9 4 5 10 27 12 305 12 305 1 0 -5 -22 -36 -50 -68 -27 -32 -50 -64 -50 -72 0 -21 26 3 75 71 31 42 41 63 38 82 -5 24 -8 25 -49 19 -32 -4 -44 -2 -44 7 0 10 -3 10 -15 0 -12 -10 -15 -10 -15 3 0 21 22 27 100 27 47 0 71 4 80 15 10 12 5 13 -39 8 -45 -5 -51 -4 -45 11 3 9 2 16 -4 16 -6 0 -12 -6 -15 -12 -3 -10 -7 -10 -18 -2 -24 19 -59 24 -59 8 0 -18 -34 -18 -49 0 -6 8 -23 16 -36 18 -21 4 -23 3 -14 -13z m99 -168 c0 -9 -34 -41 -43 -41 -12 0 -47 30 -47 40 0 4 20 6 45 6 25 -1 45 -3 45 -5z"
       id="path286" />
    <path
       d="M1620 1155 c6 -16 6 -25 0 -25 -5 0 0 -16 11 -35 27 -45 44 -45 25 -1 -8 19 -12 37 -9 39 7 7 -16 47 -27 47 -6 0 -6 -9 0 -25z"
       id="path294" />
    <path
       d="M2052 1153 c-1 -15 -13 -44 -26 -64 -24 -35 -24 -37 -6 -55 11 -10 26 -37 34 -59 l15 -40 0 38 c1 27 -6 45 -23 62 l-24 24 19 26 c22 27 38 95 22 95 -5 0 -10 -12 -11 -27z"
       id="path296" />
    <path
       d="m 1992.4144,208.46755 c -11.7792,-9.3408 -28.836,-35.68591 -37.9167,-57.7436 -15.1816,-39.62978 -16.8279,-40.76548 -41.8655,-36.17024 -14.4776,3.3761 -45.2199,0.39137 -67.8717,-5.51607 l -41.4431,-10.36671 31.2792,21.57801 c 21.6568,16.15499 40.4481,20.61416 64.0948,16.27421 l 33.3835,-6.12701 10.6125,30.40349 c 9.7322,33.44078 56.6199,85.22434 65.7054,72.05419 2.8393,-4.11572 -4.1991,-15.04555 -15.9784,-24.38627 z"
       id="path296-3" />
    <path
       d="M1591 1095 c-1 -5 10 -28 24 -50 25 -41 32 -75 15 -75 -5 0 -14 15 -19 33 -8 28 -9 29 -9 7 -1 -14 5 -53 11 -88 11 -56 14 -61 28 -50 18 14 35 133 18 123 -5 -4 -9 3 -9 14 0 12 -8 29 -17 39 -10 10 -23 27 -30 38 -6 10 -12 15 -12 9z m59 -164 c0 -26 -16 -35 -24 -15 -10 25 -7 34 9 34 8 0 15 -9 15 -19z"
       id="path298" />
    <path
       d="m 314.80175,2233.5249 c -1,-16.0297 10,-89.7661 24,-160.2966 25,-131.4432 32,-240.4448 15,-240.4448 -5,0 -14,48.089 -19,105.7958 -8,89.766 -9,92.972 -9,22.4415 -1,-44.883 5,-169.9144 11,-282.1219 11,-179.5322 14,-195.5618 28,-160.2965 18,44.883 35,426.3887 18,394.3294 -5,-12.8237 -9,9.6178 -9,44.883 0,38.4712 -8,92.972 -17,125.0314 -10,32.0592 -23,86.5601 -30,121.8253 -6,32.0592 -12,48.0889 -12,28.8534 z m 59,-525.7726 c 0,-83.3543 -16,-112.2077 -24,-48.0891 -10,80.1483 -7,109.0017 9,109.0017 8,0 15,-28.8534 15,-60.9126 z"
       id="path298-9"
       style="stroke-width:1.79051" />
    <path
       d="M1757 921 c-21 -35 -31 -61 -24 -61 14 0 51 39 52 55 1 6 5 18 9 27 4 10 6 23 4 29 -2 7 -20 -16 -41 -50z"
       id="path304" />
    <path
       d="M1579 789 c-11 -7 -11 -9 0 -9 7 0 11 -6 8 -14 -5 -11 0 -11 24 2 28 16 31 16 70 -5 22 -12 39 -17 36 -10 -8 27 -111 53 -138 36z"
       id="path310" />
    <path
       d="M1795 760 c-16 -16 -35 -30 -42 -30 -7 0 -18 -11 -25 -25 -9 -19 -8 -29 6 -49 20 -32 20 -33 -4 -39 -11 -3 -20 -10 -20 -17 0 -6 4 -9 9 -5 5 3 12 1 15 -4 4 -5 2 -12 -4 -16 -16 -10 -12 -17 28 -62 27 -30 42 -39 49 -32 7 7 13 7 17 1 11 -19 -21 -34 -46 -22 l-23 11 23 -20 c25 -22 22 -51 -3 -31 -7 6 -25 8 -40 4 -26 -6 -27 -6 -14 17 11 22 11 23 -4 10 -10 -7 -17 -10 -17 -6 0 5 -9 0 -21 -11 -21 -19 -21 -19 -18 6 2 14 9 25 14 25 6 1 24 10 41 21 l31 19 -24 19 c-25 18 -25 18 -14 -3 11 -19 8 -25 -11 -22 -5 0 -8 -3 -8 -8 0 -5 -9 -11 -20 -14 -24 -6 -28 -55 -5 -63 10 -4 12 -15 8 -35 -4 -22 -2 -29 10 -29 21 0 29 -27 15 -50 -9 -14 -9 -22 0 -33 7 -8 9 -22 6 -32 -6 -14 -3 -16 14 -10 16 5 22 2 22 -9 0 -9 -7 -16 -15 -16 -8 0 -15 -7 -15 -16 0 -14 2 -15 18 -3 15 13 16 12 4 -3 -17 -21 -42 -12 -42 15 0 30 -11 14 -21 -33 -6 -28 -6 -47 2 -61 8 -15 8 -24 0 -32 -6 -6 -11 -15 -11 -21 0 -5 3 -7 6 -3 4 3 13 0 21 -8 11 -12 43 -15 138 -15 130 0 171 8 182 37 4 10 13 24 20 31 15 15 17 48 4 56 -4 3 -16 -3 -26 -14 -17 -19 -17 -20 0 -20 14 0 15 -3 5 -15 -9 -11 -17 -12 -30 -5 -24 13 -33 13 -25 0 4 -6 1 -17 -5 -25 -17 -20 -1 -19 22 2 17 15 18 15 18 -1 0 -37 -96 -44 -108 -7 -3 10 1 12 14 8 18 -7 18 -6 0 8 -26 20 -42 4 -26 -25 10 -19 9 -21 -6 -18 -10 2 -23 13 -29 25 -10 19 -13 19 -30 7 -31 -23 -60 -14 -58 16 2 22 1 22 -12 -7 -16 -35 -31 -48 -39 -34 -4 5 -2 13 4 16 8 5 8 11 0 20 -7 8 -9 19 -5 24 3 6 1 19 -5 30 -9 17 -6 20 17 23 17 2 32 12 39 26 6 13 15 23 20 24 5 0 15 3 23 8 12 6 11 11 -3 31 l-16 23 0 -27 c0 -15 -4 -27 -10 -27 -13 0 -13 46 1 72 12 23 -6 82 -23 72 -5 -3 -2 -14 8 -25 9 -11 14 -22 10 -27 -10 -10 -46 36 -46 59 0 13 -5 17 -16 12 -11 -4 -15 -2 -12 7 5 15 78 43 87 34 3 -3 -2 -11 -12 -19 -16 -11 -15 -13 13 -17 21 -3 29 -1 26 7 -8 22 12 41 31 29 23 -14 28 -34 9 -34 -10 0 -13 -6 -9 -17 5 -14 1 -15 -27 -10 -31 7 -32 6 -17 -10 8 -10 17 -34 19 -53 2 -30 7 -35 26 -33 26 3 26 3 5 -42 -13 -26 -14 -38 -5 -47 14 -14 42 6 42 31 -1 14 -2 14 -11 -1 -15 -26 -30 -22 -20 5 5 12 15 22 23 22 8 0 31 13 51 28 40 30 54 15 17 -18 -11 -10 -20 -24 -20 -32 0 -8 -4 -11 -10 -8 -5 3 -10 -1 -10 -9 0 -26 20 -28 29 -3 6 14 14 26 19 28 15 6 60 108 49 112 -5 1 0 18 12 37 25 41 29 134 7 163 -14 18 -15 17 -21 -4 -4 -12 -1 -32 6 -45 11 -21 10 -27 -4 -42 -14 -13 -21 -14 -37 -5 -18 12 -18 11 -2 -17 16 -28 16 -30 -2 -47 -13 -13 -20 -15 -23 -5 -3 6 -12 12 -21 12 -13 0 -13 -2 3 -14 18 -13 18 -15 2 -40 -23 -34 -31 -33 -23 4 3 17 1 30 -4 30 -6 0 -10 -18 -10 -40 0 -31 3 -38 15 -34 8 4 15 1 15 -4 0 -19 -19 -23 -42 -10 -13 7 -29 11 -35 10 -7 -2 -13 2 -13 9 0 21 43 89 57 89 17 0 16 10 -3 31 -16 17 -15 21 17 57 53 61 69 82 69 91 0 4 9 16 21 26 16 15 19 26 14 57 -7 42 2 98 16 98 5 0 4 -11 -1 -26 -13 -34 5 -22 25 17 9 16 22 29 30 29 7 0 16 3 18 8 3 4 -47 7 -111 7 -83 0 -116 3 -120 13 -6 18 -16 15 -47 -18z m53 -25 c-6 -14 -15 -25 -20 -25 -11 0 -10 7 2 31 16 28 32 23 18 -6z m-41 -20 c-3 -19 -3 -35 1 -35 3 0 23 17 44 37 46 45 58 39 23 -13 -22 -32 -24 -40 -11 -42 9 -2 16 -12 16 -22 0 -10 5 -22 12 -26 7 -5 8 -3 3 6 -5 9 -4 11 3 6 22 -13 14 -46 -10 -46 -17 0 -19 -3 -9 -9 7 -5 10 -14 6 -20 -5 -9 -10 -9 -21 0 -12 10 -17 9 -27 0 -9 -10 -8 -11 6 -5 15 6 17 3 11 -20 -3 -14 -4 -26 -1 -26 3 0 26 21 51 48 25 26 46 42 46 36 0 -16 -108 -154 -121 -154 -12 0 -11 14 2 27 9 9 9 19 -1 42 -15 38 -40 61 -40 38 0 -8 6 -17 13 -20 6 -2 9 -8 5 -12 -11 -11 -38 2 -45 22 -4 10 -14 23 -22 30 -14 11 -12 12 12 13 15 0 27 4 27 10 0 5 -7 7 -15 4 -10 -4 -15 0 -15 10 0 9 6 19 14 22 12 4 9 13 -10 41 -30 44 -23 55 12 22 l27 -24 -17 27 c-17 25 -16 28 1 46 27 30 36 26 30 -13z m161 7 c10 -7 10 -15 2 -36 -13 -35 -13 -69 0 -61 6 3 10 0 10 -8 0 -28 -14 -26 -48 9 -32 33 -33 36 -17 54 11 12 13 20 6 25 -6 3 -11 10 -11 16 0 11 40 12 58 1z m-58 -26 c0 -15 -24 -28 -34 -19 -7 7 13 33 25 33 5 0 9 -6 9 -14z m100 -207 c0 -5 -4 -9 -10 -9 -5 0 -10 7 -10 16 0 8 5 12 10 9 6 -3 10 -10 10 -16z m-24 -121 c-36 -60 -55 -83 -62 -75 -7 7 11 38 53 95 35 46 41 32 9 -20z m-6 -57 c0 -12 -20 -25 -27 -18 -7 7 6 27 18 27 5 0 9 -4 9 -9z m-240 -50 c-1 -24 -1 -25 -12 -6 -6 11 -16 23 -21 26 -5 4 -6 12 -2 18 11 19 35 -7 35 -38z"
       id="path314" />
    <path
       d="M1633 748 c2 -7 12 -14 23 -14 10 -1 23 -2 28 -3 5 -1 3 -8 -4 -16 -10 -12 -10 -15 0 -15 7 0 10 -7 6 -15 -10 -26 3 -16 19 15 14 27 14 30 0 30 -8 0 -15 5 -15 11 0 7 -10 9 -26 5 -17 -5 -23 -3 -19 4 3 5 1 10 -5 10 -7 0 -10 -6 -7 -12z"
       id="path316" />
  </g>
</svg>
